<svg id="Capa_1" enable-background="new 0 0 512 512" viewBox="0 0 512 512" fill="white" xmlns="http://www.w3.org/2000/svg">
    
<g><path d="m362 287c-12.407 0-22.5 10.093-22.5 22.5s10.093 22.5 22.5 22.5 22.5-10.093 22.5-22.5-10.093-22.5-22.5-22.5zm0 30c-4.136 0-7.5-3.364-7.5-7.5s3.364-7.5 7.5-7.5 7.5 3.364 7.5 7.5-3.364 7.5-7.5 7.5z"/><path d="m302 287c-12.407 0-22.5 10.093-22.5 22.5s10.093 22.5 22.5 22.5 22.5-10.093 22.5-22.5-10.093-22.5-22.5-22.5zm0 30c-4.136 0-7.5-3.364-7.5-7.5s3.364-7.5 7.5-7.5 7.5 3.364 7.5 7.5-3.364 7.5-7.5 7.5z"/><path d="m362 347c-12.407 0-22.5 10.093-22.5 22.5s10.093 22.5 22.5 22.5 22.5-10.093 22.5-22.5-10.093-22.5-22.5-22.5zm0 30c-4.136 0-7.5-3.364-7.5-7.5s3.364-7.5 7.5-7.5 7.5 3.364 7.5 7.5-3.364 7.5-7.5 7.5z"/><path d="m302 347c-12.407 0-22.5 10.093-22.5 22.5s10.093 22.5 22.5 22.5 22.5-10.093 22.5-22.5-10.093-22.5-22.5-22.5zm0 30c-4.136 0-7.5-3.364-7.5-7.5s3.364-7.5 7.5-7.5 7.5 3.364 7.5 7.5-3.364 7.5-7.5 7.5z"/><path d="m422 347c-12.407 0-22.5 10.093-22.5 22.5s10.093 22.5 22.5 22.5 22.5-10.093 22.5-22.5-10.093-22.5-22.5-22.5zm0 30c-4.136 0-7.5-3.364-7.5-7.5s3.364-7.5 7.5-7.5 7.5 3.364 7.5 7.5-3.364 7.5-7.5 7.5z"/><path d="m362 407c-12.407 0-22.5 10.093-22.5 22.5s10.093 22.5 22.5 22.5 22.5-10.093 22.5-22.5-10.093-22.5-22.5-22.5zm0 30c-4.136 0-7.5-3.364-7.5-7.5s3.364-7.5 7.5-7.5 7.5 3.364 7.5 7.5-3.364 7.5-7.5 7.5z"/><path d="m302 407c-12.407 0-22.5 10.093-22.5 22.5s10.093 22.5 22.5 22.5 22.5-10.093 22.5-22.5-10.093-22.5-22.5-22.5zm0 30c-4.136 0-7.5-3.364-7.5-7.5s3.364-7.5 7.5-7.5 7.5 3.364 7.5 7.5-3.364 7.5-7.5 7.5z"/><path d="m422 407c-12.407 0-22.5 10.093-22.5 22.5s10.093 22.5 22.5 22.5 22.5-10.093 22.5-22.5-10.093-22.5-22.5-22.5zm0 30c-4.136 0-7.5-3.364-7.5-7.5s3.364-7.5 7.5-7.5 7.5 3.364 7.5 7.5-3.364 7.5-7.5 7.5z"/><path d="m422 287c-12.407 0-22.5 10.093-22.5 22.5s10.093 22.5 22.5 22.5 22.5-10.093 22.5-22.5-10.093-22.5-22.5-22.5zm0 30c-4.136 0-7.5-3.364-7.5-7.5s3.364-7.5 7.5-7.5 7.5 3.364 7.5 7.5-3.364 7.5-7.5 7.5z"/><path d="m482 204.5v-167c0-4.142-3.358-7.5-7.5-7.5h-225c-4.142 0-7.5 3.358-7.5 7.5v167c0 4.142 3.358 7.5 7.5 7.5h225c4.142 0 7.5-3.358 7.5-7.5zm-15-159.5v107h-210v-107zm-210 152v-30h210v30z"/><path d="m474.5 0h-225c-18.11 0-33.261 12.904-36.745 30h-16.509c-3.485-17.096-18.636-30-36.746-30h-92c-18.11 0-33.261 12.904-36.745 30h-23.255c-4.142 0-7.5 3.358-7.5 7.5v437c0 4.142 3.358 7.5 7.5 7.5h23.255c3.484 17.096 18.635 30 36.745 30h92c18.11 0 33.261-12.904 36.745-30h16.509c3.484 17.096 18.635 30 36.745 30h225c20.678 0 37.5-16.822 37.5-37.5v-437c.001-20.678-16.821-37.5-37.499-37.5zm-459.5 45h15v422h-15zm167 429.5c0 12.407-10.093 22.5-22.5 22.5h-92c-12.407 0-22.5-10.093-22.5-22.5v-437c0-12.407 10.093-22.5 22.5-22.5h92c12.407 0 22.5 10.093 22.5 22.5zm30-7.5h-15v-422h15zm262.5 30h-225c-12.407 0-22.5-10.093-22.5-22.5v-232.5h22.5c4.142 0 7.5-3.358 7.5-7.5s-3.358-7.5-7.5-7.5h-22.5v-189.5c0-12.407 10.093-22.5 22.5-22.5h225c12.407 0 22.5 10.093 22.5 22.5v189.5h-217.5c-4.142 0-7.5 3.358-7.5 7.5s3.358 7.5 7.5 7.5h217.5v232.5c0 12.407-10.093 22.5-22.5 22.5z"/></g></svg>